<svg>
    <symbol id="moon" viewBox="0 0 24 24" xmlns="http://www.w3.org/2000/svg">
        <path d="M12 22C17.5228 22 22 17.5228 22 12C22 11.5373 21.3065 11.4608 21.0672 11.8568C19.9289 13.7406 17.8615 15 15.5 15C11.9101 15 9 12.0899 9 8.5C9 6.13845 10.2594 4.07105 12.1432 2.93276C12.5392 2.69347 12.4627 2 12 2C6.47715 2 2 6.47715 2 12C2 17.5228 6.47715 22 12 22Z"/>
    </symbol>
    <symbol id="burger" viewBox="0 0 24 24" xmlns="http://www.w3.org/2000/svg">
        <path d="M5 12H20" stroke="#000000" stroke-width="2" stroke-linecap="round"/>
        <path d="M5 17H20" stroke="#000000" stroke-width="2" stroke-linecap="round"/>
        <path d="M5 7H20" stroke="#000000" stroke-width="2" stroke-linecap="round"/>
    </symbol>
    <symbol id="closeBurger" viewBox="0 0 24 24" xmlns="http://www.w3.org/2000/svg">
        <path d="M20.7457 3.32851C20.3552 2.93798 19.722 2.93798 19.3315 3.32851L12.0371 10.6229L4.74275 3.32851C4.35223 2.93798 3.71906 2.93798 3.32854 3.32851C2.93801 3.71903 2.93801 4.3522 3.32854 4.74272L10.6229 12.0371L3.32856 19.3314C2.93803 19.722 2.93803 20.3551 3.32856 20.7457C3.71908 21.1362 4.35225 21.1362 4.74277 20.7457L12.0371 13.4513L19.3315 20.7457C19.722 21.1362 20.3552 21.1362 20.7457 20.7457C21.1362 20.3551 21.1362 19.722 20.7457 19.3315L13.4513 12.0371L20.7457 4.74272C21.1362 4.3522 21.1362 3.71903 20.7457 3.32851Z" />
    </symbol>
    <symbol id="sun" viewBox="0 0 24 24" xmlns="http://www.w3.org/2000/svg">
        <path d="M7.28451 10.3333C7.10026 10.8546 7 11.4156 7 12C7 14.7614 9.23858 17 12 17C14.7614 17 17 14.7614 17 12C17 9.23858 14.7614 7 12 7C11.4156 7 10.8546 7.10026 10.3333 7.28451" stroke="#1C274C" stroke-width="1.5" stroke-linecap="round"/>
        <path d="M12 2V4" stroke="#1C274C" stroke-width="1.5" stroke-linecap="round"/>
        <path d="M12 20V22" stroke="#1C274C" stroke-width="1.5" stroke-linecap="round"/>
        <path d="M4 12L2 12" stroke="#1C274C" stroke-width="1.5" stroke-linecap="round"/>
        <path d="M22 12L20 12" stroke="#1C274C" stroke-width="1.5" stroke-linecap="round"/>
        <path d="M19.7778 4.22266L17.5558 6.25424" stroke="#1C274C" stroke-width="1.5" stroke-linecap="round"/>
        <path d="M4.22217 4.22266L6.44418 6.25424" stroke="#1C274C" stroke-width="1.5" stroke-linecap="round"/>
        <path d="M6.44434 17.5557L4.22211 19.7779" stroke="#1C274C" stroke-width="1.5" stroke-linecap="round"/>
        <path d="M19.7778 19.7773L17.5558 17.5551" stroke="#1C274C" stroke-width="1.5" stroke-linecap="round"/>
    </symbol>
    <symbol id="left"  viewBox="0 0 24 24"  xmlns="http://www.w3.org/2000/svg">
        <path d="M15 6L9 12L15 18M15 12H15.01" stroke="#000000" stroke-width="2" stroke-linecap="round" stroke-linejoin="round"/>
    </symbol>
    <symbol id="right"  viewBox="0 0 24 24"  xmlns="http://www.w3.org/2000/svg">
        <path d="M9 6L15 12L9 18M9 12H9.01" stroke="#000000" stroke-width="2" stroke-linecap="round" stroke-linejoin="round"/>
    </symbol>
    
</svg>

